<?xml version="1.0" encoding="UTF-8"?>
<svg version="1.1" xmlns="http://www.w3.org/2000/svg" width="292" height="286">
<path d="M0 0 C96.36 0 192.72 0 292 0 C292 94.38 292 188.76 292 286 C195.64 286 99.28 286 0 286 C0 191.62 0 97.24 0 0 Z " fill="#06122C" transform="translate(0,0)"/>
<path d="M0 0 C1.83302941 0.93393894 3.60605699 1.98355092 5.3671875 3.046875 C7.02416129 3.73728074 8.68642519 4.41658913 10.3671875 5.046875 C10.3671875 5.706875 10.3671875 6.366875 10.3671875 7.046875 C11.0271875 7.046875 11.6871875 7.046875 12.3671875 7.046875 C12.3671875 7.706875 12.3671875 8.366875 12.3671875 9.046875 C13.08261719 9.12808594 13.79804688 9.20929688 14.53515625 9.29296875 C24.97229961 12.07140829 35.56118409 25.03636966 41.24609375 33.92578125 C42.65830744 36.59766986 43.2127873 39.03607101 43.3671875 42.046875 C44.0271875 42.046875 44.6871875 42.046875 45.3671875 42.046875 C45.99323335 43.75482534 46.61797165 45.46325498 47.2421875 47.171875 C47.59023437 48.12320313 47.93828125 49.07453125 48.296875 50.0546875 C48.65007812 51.04210937 49.00328125 52.02953125 49.3671875 53.046875 C49.71378418 53.95622803 50.06038086 54.86558105 50.41748047 55.80249023 C51.45229436 59.33761665 51.62578514 62.27064457 51.6328125 65.94921875 C51.63539063 67.25181641 51.63796875 68.55441406 51.640625 69.89648438 C51.63643555 70.56832764 51.63224609 71.2401709 51.62792969 71.93237305 C51.61723448 73.97540096 51.62784549 76.01754622 51.640625 78.06054688 C51.63804687 79.36443359 51.63546875 80.66832031 51.6328125 82.01171875 C51.63055664 83.1937085 51.62830078 84.37569824 51.62597656 85.59350586 C51.34681486 89.31873442 50.49671358 92.49338909 49.3671875 96.046875 C48.98417323 97.42963163 48.6013239 98.81243397 48.21875 100.1953125 C47.8109077 101.60445992 47.40204546 103.01331252 46.9921875 104.421875 C46.79625 105.14503906 46.6003125 105.86820312 46.3984375 106.61328125 C45.78125 108.6953125 45.78125 108.6953125 44.3671875 112.046875 C42.203125 113.0234375 42.203125 113.0234375 40.3671875 113.046875 C40.2846875 113.93375 40.2021875 114.820625 40.1171875 115.734375 C38.32712243 123.64049572 29.77007607 130.35357381 23.3671875 135.046875 C22.7071875 135.046875 22.0471875 135.046875 21.3671875 135.046875 C21.3671875 135.706875 21.3671875 136.366875 21.3671875 137.046875 C20.1915625 137.4490625 20.1915625 137.4490625 18.9921875 137.859375 C16.08603827 138.89501932 16.08603827 138.89501932 14.3671875 142.046875 C10.7421875 142.734375 10.7421875 142.734375 7.3671875 143.046875 C7.3671875 143.706875 7.3671875 144.366875 7.3671875 145.046875 C-13.5515916 152.76401161 -33.20872199 156.85001243 -54.76953125 148.046875 C-56.6328125 147.046875 -56.6328125 147.046875 -57.6328125 145.046875 C-58.7878125 144.716875 -59.9428125 144.386875 -61.1328125 144.046875 C-62.2878125 143.716875 -63.4428125 143.386875 -64.6328125 143.046875 C-64.9628125 142.386875 -65.2928125 141.726875 -65.6328125 141.046875 C-66.7053125 140.44875 -67.7778125 139.850625 -68.8828125 139.234375 C-72.41783927 137.24774839 -75.17341266 135.35169354 -77.6328125 132.046875 C-77.6953125 128.359375 -77.6953125 128.359375 -76.6328125 125.046875 C-74.24969154 122.84707103 -72.67773777 123.046875 -69.4453125 123.046875 C-65.11161587 124.18358231 -62.39483323 126.03861277 -58.7890625 128.61328125 C-56.19937684 130.33504689 -53.6371933 131.27652095 -50.6328125 132.046875 C-50.6328125 132.706875 -50.6328125 133.366875 -50.6328125 134.046875 C-48.869375 134.2325 -48.869375 134.2325 -47.0703125 134.421875 C-44.31110577 134.75355665 -42.11060069 135.2209456 -39.4453125 136.109375 C-30.63638727 138.27550415 -21.39371299 137.06074444 -12.4453125 136.234375 C-11.60709961 136.16444336 -10.76888672 136.09451172 -9.90527344 136.02246094 C-7.80046742 135.80549736 -5.71250592 135.43694789 -3.6328125 135.046875 C-2.9728125 134.056875 -2.3128125 133.066875 -1.6328125 132.046875 C0.1796875 131.125 0.1796875 131.125 2.3671875 130.296875 C9.9259919 127.10972161 16.5040892 122.71112082 21.3671875 116.046875 C22.1921875 115.49 23.0171875 114.933125 23.8671875 114.359375 C27.04329847 111.42147235 27.99300594 108.5436097 29.453125 104.53125 C30.54590805 101.56112172 31.89508643 98.84386704 33.3671875 96.046875 C34.0271875 96.046875 34.6871875 96.046875 35.3671875 96.046875 C37.15774131 82.10613464 38.76301923 64.7155907 33.296875 51.44921875 C32.3671875 49.046875 32.3671875 49.046875 32.3671875 46.046875 C31.7071875 46.046875 31.0471875 46.046875 30.3671875 46.046875 C30.0371875 44.396875 29.7071875 42.746875 29.3671875 41.046875 C28.7071875 41.046875 28.0471875 41.046875 27.3671875 41.046875 C25.906559 38.39948584 25.3671875 37.15239166 25.3671875 34.046875 C24.23216797 33.66402344 24.23216797 33.66402344 23.07421875 33.2734375 C20.18445819 31.9640799 19.06052852 30.82505446 17.0546875 28.421875 C11.73416583 22.8691484 5.12881175 20.01065387 -1.78369141 16.88818359 C-3.3247576 16.18703306 -4.84678718 15.44422949 -6.36328125 14.69140625 C-12.58265438 11.80570046 -18.55473912 11.57113022 -25.3125 11.515625 C-28.6328125 11.046875 -28.6328125 11.046875 -31.078125 9.2734375 C-32.82082427 6.77761192 -33.08313773 5.88276342 -32.6328125 2.921875 C-32.5503125 2.23867187 -32.4678125 1.55546875 -32.3828125 0.8515625 C-31.6328125 -0.953125 -31.6328125 -0.953125 -29.8046875 -2.1796875 C-21.71627294 -5.06009412 -8.0203343 -2.90350381 0 0 Z " fill="#C0C4CC" transform="translate(173.6328125,68.953125)"/>
<path d="M0 0 C1.32941739 0.34862344 2.66193349 0.68620564 4 1 C4 1.66 4 2.32 4 3 C4.639375 3.0825 5.27875 3.165 5.9375 3.25 C10.20541517 4.29520372 14.03107667 6.14091826 18 8 C18 8.66 18 9.32 18 10 C19.32 10 20.64 10 22 10 C24.4375 12.25 24.4375 12.25 27 15 C27.825 15.66 28.65 16.32 29.5 17 C32.21381427 19.17105142 34.57150869 21.51368746 37 24 C37.57105469 24.54914063 38.14210937 25.09828125 38.73046875 25.6640625 C41.57016117 28.4129332 44.16948544 31.04053332 46.3125 34.375 C47.7363336 37.08089128 47.7363336 37.08089128 50 38 C51.3542515 40.37666655 52.60513082 42.73721759 53.8125 45.1875 C54.34327148 46.26040283 54.34327148 46.26040283 54.88476562 47.35498047 C63.43315068 64.98505147 63.43315068 64.98505147 63 74 C63.66 74 64.32 74 65 74 C67.40918217 89.81511523 67.77460308 107.62464126 63 123 C62.34 123 61.68 123 61 123 C60.93941406 123.61488281 60.87882813 124.22976562 60.81640625 124.86328125 C60.73261719 125.67152344 60.64882812 126.47976562 60.5625 127.3125 C60.44068359 128.51326172 60.44068359 128.51326172 60.31640625 129.73828125 C60 132 60 132 59 135 C57.72125 135.061875 56.4425 135.12375 55.125 135.1875 C54.40570313 135.22230469 53.68640625 135.25710937 52.9453125 135.29296875 C52.30335938 135.19628906 51.66140625 135.09960938 51 135 C48.4832061 131.22480915 48.51002384 128.36655223 49 124 C49.6784468 121.22829661 50.47286303 118.50273065 51.265625 115.76171875 C52.39943647 111.49786393 52.80315546 107.4000545 53 103 C53.03254883 102.36707031 53.06509766 101.73414063 53.09863281 101.08203125 C53.89012643 83.78110013 51.09550442 66.47022301 41 52 C40.566875 50.7934375 40.566875 50.7934375 40.125 49.5625 C38.75316591 46.43776679 36.84378427 44.35615165 34.578125 41.83203125 C33.05274228 40.06122805 31.74625905 38.24664707 30.4375 36.3125 C28.32094611 33.27334569 25.98514495 31.21972317 23 29 C22.40445313 28.36835937 21.80890625 27.73671875 21.1953125 27.0859375 C18.76955848 24.78103955 16.39036381 23.37530819 13.4375 21.8125 C12.48746094 21.30332031 11.53742188 20.79414062 10.55859375 20.26953125 C7.97948821 18.91627755 7.97948821 18.91627755 5 18 C5 17.34 5 16.68 5 16 C1.27445075 14.46554372 -2.48627631 13.13639242 -6.3125 11.875 C-7.91544922 11.34519531 -7.91544922 11.34519531 -9.55078125 10.8046875 C-10.35902344 10.53914063 -11.16726562 10.27359375 -12 10 C-12 9.34 -12 8.68 -12 8 C-25.66792641 6.85930868 -39.29280589 6.89342493 -53 7 C-53 7.66 -53 8.32 -53 9 C-53.76183594 9.17015625 -54.52367187 9.3403125 -55.30859375 9.515625 C-61.94642949 11.07356897 -67.86264005 13.06836787 -74 16 C-75.7325 16.680625 -75.7325 16.680625 -77.5 17.375 C-86.55468691 21.57896178 -93.97451291 27.97451291 -101 35 C-104.92147266 35.36995025 -107.1824498 35.55184638 -110.5 33.3125 C-112 31 -112 31 -111.84765625 28.6328125 C-109.49180505 21.31556038 -100.40045067 14.96775905 -94 11 C-93.20335938 10.68160156 -92.40671875 10.36320312 -91.5859375 10.03515625 C-87.8742212 8.54934837 -84.67054038 6.38037368 -81.3046875 4.2421875 C-79 3 -79 3 -76 3 C-76 2.34 -76 1.68 -76 1 C-75.23816406 0.81824219 -74.47632813 0.63648438 -73.69140625 0.44921875 C-68.12599777 -0.90565597 -62.68931084 -2.32477273 -57.328125 -4.3515625 C-39.16697906 -9.40986825 -17.37220923 -6.36981005 0 0 Z " fill="#C2C7CF" transform="translate(184,48)"/>
<path d="M0 0 C2 2 2 2 2.23046875 3.875 C2.20919922 4.926875 2.20919922 4.926875 2.1875 6 C2.18105469 6.70125 2.17460938 7.4025 2.16796875 8.125 C2 10 2 10 1 12 C0.21625 12.45375 -0.5675 12.9075 -1.375 13.375 C-4.03012121 15.01864647 -5.19982859 16.51404901 -7 19 C-7.66 19 -8.32 19 -9 19 C-9.13277344 19.59425781 -9.26554687 20.18851563 -9.40234375 20.80078125 C-10 23 -10 23 -11.5625 26.1875 C-14.71824948 34.51430433 -14.3561856 45.73216367 -11 53.9375 C-10.62875 54.68902344 -10.2575 55.44054687 -9.875 56.21484375 C-9 58 -9 58 -9 60 C-8.34 60 -7.68 60 -7 60 C-7 60.66 -7 61.32 -7 62 C-6.34 62 -5.68 62 -5 62 C-4.09670782 63.19353032 -3.25218518 64.43181714 -2.4375 65.6875 C1.65550202 71.35937503 7.19120559 74.5453481 14 76 C17.22580907 76.26591377 20.45185229 76.27694343 23.6875 76.3125 C24.54794922 76.34150391 25.40839844 76.37050781 26.29492188 76.40039062 C32.78118872 76.46393356 37.26667342 74.90314609 43 72 C43.99 71.67 44.98 71.34 46 71 C46 70.34 46 69.68 46 69 C47.48233437 67.78119174 48.96723194 66.56517075 50.47265625 65.375 C52.50731723 63.54328475 53.65128019 61.36025966 55 59 C55.66 59 56.32 59 57 59 C61.76144261 47.20976116 61.37480233 34.59824855 57.203125 22.71484375 C54.6823215 17.02666703 50.87669159 13.79298235 46 10 C44.58558126 7.17116253 44.68099668 5.12623255 45 2 C47.07915513 -0.39902515 48.61293532 -0.90998496 51.6875 -1.625 C56.88297556 -0.64472159 60.33684603 2.27404911 64 6 C65.64518018 8.60832487 66.77312698 11.1536546 68 14 C68.99 14.495 68.99 14.495 70 15 C76.01765418 26.78457277 77.30532824 43.11756142 73.75390625 55.8828125 C71.02535241 63.54538339 68.72733616 69.23480355 62 74 C61.175 74.825 60.35 75.65 59.5 76.5 C55.08172205 80.91827795 50.79484418 84.55328801 45 87 C44.01 87 43.02 87 42 87 C42 87.66 42 88.32 42 89 C38.85811308 90.8357297 36.55170086 91.25632927 32.9296875 91.265625 C31.95 91.26820313 30.9703125 91.27078125 29.9609375 91.2734375 C28.94257813 91.26570313 27.92421875 91.25796875 26.875 91.25 C25.87984375 91.25773437 24.8846875 91.26546875 23.859375 91.2734375 C10.54657077 91.23867822 0.60585593 88.73120085 -9.23828125 79.5859375 C-11.11789802 77.81709214 -11.11789802 77.81709214 -14 76 C-14 75.01 -14 74.02 -14 73 C-14.66 73 -15.32 73 -16 73 C-20 67.70588235 -20 67.70588235 -20 64 C-20.66 64 -21.32 64 -22 64 C-22.62958174 62.48105765 -23.25340464 60.95972805 -23.875 59.4375 C-24.22304687 58.59058594 -24.57109375 57.74367187 -24.9296875 56.87109375 C-30.07493757 43.06905432 -28.74930258 30.56943593 -24 17 C-23.34 17 -22.68 17 -22 17 C-21.74089844 16.27039063 -21.48179688 15.54078125 -21.21484375 14.7890625 C-19.96188144 11.91248664 -18.5160457 9.820083 -16.5625 7.375 C-15.96566406 6.61960937 -15.36882812 5.86421875 -14.75390625 5.0859375 C-10.07497272 -0.47876296 -7.4059039 -1.48118078 0 0 Z " fill="#C2C5CC" transform="translate(124,104)"/>
<path d="M0 0 C0.7940625 -0.01675781 1.588125 -0.03351563 2.40625 -0.05078125 C3.0971875 0.06910156 3.788125 0.18898437 4.5 0.3125 C6.98240396 4.03610594 6.7870895 6.99984873 6.875 11.3125 C7.21038273 20.61460673 8.93119903 29.36935773 11.05859375 38.40869141 C11.589949 40.70045481 12.05728571 43.00208482 12.5 45.3125 C13.16 45.3125 13.82 45.3125 14.5 45.3125 C14.65855469 45.96476562 14.81710938 46.61703125 14.98046875 47.2890625 C16.5773426 53.27072257 18.29859496 56.80367508 22.5 61.3125 C26.5 66.93412162 26.5 66.93412162 26.5 69.3125 C27.11875 69.580625 27.7375 69.84875 28.375 70.125 C30.5 71.3125 30.5 71.3125 32.5 74.3125 C34.15532623 75.33116229 35.82260138 76.33060813 37.5 77.3125 C39.3125 78.875 39.3125 78.875 40.5 80.3125 C40.5 80.9725 40.5 81.6325 40.5 82.3125 C41.0465625 82.58191406 41.593125 82.85132813 42.15625 83.12890625 C44.79451582 84.46123049 47.39916284 85.84597664 50 87.25 C50.9384375 87.75402344 51.876875 88.25804687 52.84375 88.77734375 C55.5 90.3125 55.5 90.3125 57.36328125 91.8046875 C68.5205336 99.67799537 82.6584472 99.86002512 95.75 99.75 C96.47609467 99.74390717 97.20218933 99.73781433 97.95028687 99.73153687 C110.82992658 99.90487029 110.82992658 99.90487029 123 96.375 C126.7660287 94.5974856 130.48875813 93.44775713 134.5 92.3125 C137.74056635 90.91460863 140.06409864 89.74840136 142.5625 87.25 C145.444273 84.368227 148.10432617 83.44542132 152.125 83.0625 C154.5 83.3125 154.5 83.3125 157.5 85.3125 C158.15771812 91.34158277 158.15771812 91.34158277 156.1875 94.25 C154.5 95.3125 154.5 95.3125 151.5 95.3125 C151.5 95.9725 151.5 96.6325 151.5 97.3125 C149.89967863 98.15319415 148.29458829 98.98481505 146.6875 99.8125 C145.79417969 100.2765625 144.90085938 100.740625 143.98046875 101.21875 C141.5 102.3125 141.5 102.3125 138.5 102.3125 C138.5 102.9725 138.5 103.6325 138.5 104.3125 C137.30375 104.745625 136.1075 105.17875 134.875 105.625 C132.28101124 106.59147736 129.91229018 107.61235195 127.4375 108.875 C117.75871767 113.6114254 107.17472117 113.4933314 96.625 113.5 C95.61308594 113.51224609 94.60117188 113.52449219 93.55859375 113.53710938 C86.6535472 113.55037131 80.23865837 112.79564662 73.5 111.3125 C72.74428711 111.15144775 71.98857422 110.99039551 71.20996094 110.82446289 C54.01724342 106.96562704 38.84728448 98.99349487 26.5 86.3125 C25.7265625 85.7246875 24.953125 85.136875 24.15625 84.53125 C15.19721321 77.04781927 8.67385684 65.6746658 3.5 55.3125 C3.5 54.6525 3.5 53.9925 3.5 53.3125 C2.84 53.3125 2.18 53.3125 1.5 53.3125 C-0.80361988 47.05981746 -2.29916807 40.82289618 -3.49731445 34.27905273 C-3.88350681 31.01512867 -3.88350681 31.01512867 -5.5 28.3125 C-6.42039056 22.50294258 -6.6826606 16.81253072 -6.6875 10.9375 C-6.69974609 10.13183594 -6.71199219 9.32617188 -6.72460938 8.49609375 C-6.72979166 6.43354303 -6.62319838 4.37137457 -6.5 2.3125 C-4.07477793 -0.11272207 -3.3279321 0.01620746 0 0 Z " fill="#C2C3CB" transform="translate(52.5,132.6875)"/>
<path d="M0 0 C1.916588 -0.02712153 3.8332873 -0.04645097 5.75 -0.0625 C7.35101563 -0.07990234 7.35101563 -0.07990234 8.984375 -0.09765625 C11.57031701 -0.0139146 13.58708312 0.10592812 16 1 C20 5.33333333 20 5.33333333 20 8 C20.66 8 21.32 8 22 8 C22.75109564 17.59733321 21.13386859 25.19913482 18.19140625 34.25 C17.25914738 37.18432299 16.51441015 39.97266672 16 43 C15.34 43 14.68 43 14 43 C14.020625 43.94875 14.04125 44.8975 14.0625 45.875 C14 49 14 49 13 51 C11.20841511 51.02696365 9.41671527 51.04637917 7.625 51.0625 C6.62726563 51.07410156 5.62953125 51.08570313 4.6015625 51.09765625 C2 51 2 51 0 50 C-0.78125 47.9609375 -0.78125 47.9609375 -1.5 45.375 C-1.75394531 44.47136719 -2.00789062 43.56773437 -2.26953125 42.63671875 C-2.51058594 41.76660156 -2.75164062 40.89648438 -3 40 C-3.391875 38.741875 -3.78375 37.48375 -4.1875 36.1875 C-4.92625945 33.28928985 -5.17992457 30.96875547 -5 28 C-5.66 28 -6.32 28 -7 28 C-9.58823529 11.17647059 -9.58823529 11.17647059 -7 6 C-6.34 6 -5.68 6 -5 6 C-4.67 5.01 -4.34 4.02 -4 3 C-1.9375 2.3125 -1.9375 2.3125 0 2 C0 1.34 0 0.68 0 0 Z " fill="#C4C7CE" transform="translate(141,92)"/>
<path d="M0 0 C1.83984375 0.6171875 1.83984375 0.6171875 3.83984375 3.6171875 C3.81640625 5.87890625 3.81640625 5.87890625 3.46484375 8.3046875 C3.35398438 9.11292969 3.243125 9.92117187 3.12890625 10.75390625 C3.03351563 11.36878906 2.938125 11.98367187 2.83984375 12.6171875 C2.09605469 12.87242188 1.35226563 13.12765625 0.5859375 13.390625 C-6.84865806 16.71134052 -14.1010684 25.63652595 -17.1953125 33.12109375 C-17.9198111 35.27437098 -18.58059152 37.42094219 -19.16015625 39.6171875 C-19.82015625 39.6171875 -20.48015625 39.6171875 -21.16015625 39.6171875 C-21.49015625 41.5971875 -21.82015625 43.5771875 -22.16015625 45.6171875 C-22.82015625 45.6171875 -23.48015625 45.6171875 -24.16015625 45.6171875 C-24.74212598 49.10900588 -25.15419474 52.48038646 -25.30859375 56.0234375 C-25.36273438 57.250625 -25.416875 58.4778125 -25.47265625 59.7421875 C-25.51003906 60.92039063 -25.54742187 62.09859375 -25.5859375 63.3125 C-26.26132386 67.19941745 -27.28185395 68.94158254 -30.16015625 71.6171875 C-33.11081952 72.04418515 -35.19374989 71.29800207 -38.16015625 70.6171875 C-40.46682085 68.3105229 -39.46988056 62.32486346 -39.48144531 59.1159668 C-39.32092569 48.04987402 -36.85102782 38.14768326 -31.16015625 28.6171875 C-30.70640625 27.4828125 -30.25265625 26.3484375 -29.78515625 25.1796875 C-25.88527694 16.62995208 -19.14829975 9.78744157 -12.16015625 3.6171875 C-11.17015625 3.2871875 -10.18015625 2.9571875 -9.16015625 2.6171875 C-8.76828125 2.0809375 -8.37640625 1.5446875 -7.97265625 0.9921875 C-5.30601894 -1.03077874 -3.20992313 -0.39451569 0 0 Z " fill="#BEC2C8" transform="translate(110.16015625,79.3828125)"/>
<path d="M0 0 C1.57394531 -0.05607422 1.57394531 -0.05607422 3.1796875 -0.11328125 C6.79412484 0.40923025 7.88541196 1.49987183 10.125 4.3125 C11.69051582 7.96537025 11.46975184 12.39996745 11.125 16.3125 C10.125 18.8125 10.125 18.8125 9.125 20.3125 C8.465 20.3125 7.805 20.3125 7.125 20.3125 C7.125 20.9725 7.125 21.6325 7.125 22.3125 C4.11009443 23.31746852 2.08318308 23.41585303 -1.0625 23.375 C-1.96355469 23.36597656 -2.86460937 23.35695312 -3.79296875 23.34765625 C-4.48003906 23.33605469 -5.16710937 23.32445312 -5.875 23.3125 C-6.205 22.3225 -6.535 21.3325 -6.875 20.3125 C-7.865 19.9825 -8.855 19.6525 -9.875 19.3125 C-9.875 18.3225 -9.875 17.3325 -9.875 16.3125 C-10.535 16.3125 -11.195 16.3125 -11.875 16.3125 C-11.875 13.0125 -11.875 9.7125 -11.875 6.3125 C-11.215 6.3125 -10.555 6.3125 -9.875 6.3125 C-9.58625 5.508125 -9.2975 4.70375 -9 3.875 C-7.09223755 -0.4704589 -4.39610268 0.10210996 0 0 Z " fill="#C3C6CD" transform="translate(147.875,152.6875)"/>
<path d="M0 0 C4.62 0 9.24 0 14 0 C12.515 1.485 12.515 1.485 11 3 C10.34 3 9.68 3 9 3 C9 3.66 9 4.32 9 5 C8.38640625 5.57234375 7.7728125 6.1446875 7.140625 6.734375 C4.5781762 9.44645585 3.83061026 11.69942342 2.75 15.25 C2.41484375 16.32765625 2.0796875 17.4053125 1.734375 18.515625 C1.49203125 19.33546875 1.2496875 20.1553125 1 21 C0.67 21 0.34 21 0 21 C0 14.07 0 7.14 0 0 Z " fill="#E8EAEA" transform="translate(0,0)"/>
<path d="M0 0 C2.57787222 1.28893611 2.59836566 2.19949809 3.5 4.875 C4.45192401 7.67903704 5.31721228 9.47581842 7 12 C7 12.99 7 13.98 7 15 C8.32 15.66 9.64 16.32 11 17 C11 17.33 11 17.66 11 18 C7.37 18 3.74 18 0 18 C0 12.06 0 6.12 0 0 Z " fill="#C9CACC" transform="translate(0,268)"/>
<path d="M0 0 C-9.70563449 4.10622998 -19.5007605 5.41811131 -30 5 C-29.67 4.34 -29.34 3.68 -29 3 C-26.63336343 2.74031918 -24.25401931 2.5931123 -21.875 2.5 C-16.57607717 2.29014167 -12.05666543 1.60696484 -7 0 C-2.29850746 -1.14925373 -2.29850746 -1.14925373 0 0 Z " fill="#9196A2" transform="translate(181,241)"/>
<path d="M0 0 C2.97 0 5.94 0 9 0 C9 2.97 9 5.94 9 9 C7.2421875 7.47005208 5.484375 5.94010417 3.7265625 4.41015625 C2.04367666 2.93041376 2.04367666 2.93041376 0 2 C0 1.34 0 0.68 0 0 Z " fill="#ECEEF1" transform="translate(283,0)"/>
<path d="M0 0 C0.66 0.33 1.32 0.66 2 1 C0.54782324 2.50596108 -0.91192861 4.00462104 -2.375 5.5 C-3.18710938 6.3353125 -3.99921875 7.170625 -4.8359375 8.03125 C-7 10 -7 10 -9 10 C-9 10.99 -9 11.98 -9 13 C-9.66 13 -10.32 13 -11 13 C-9.87548273 10.0280615 -8.77706209 7.66559313 -7 5 C-6.34 5 -5.68 5 -5 5 C-5 4.34 -5 3.68 -5 3 C-2.625 1.3125 -2.625 1.3125 0 0 Z " fill="#3C4A50" transform="translate(14,0)"/>
<path d="M0 0 C0.33 0 0.66 0 1 0 C1 2.97 1 5.94 1 9 C-1.64 9 -4.28 9 -7 9 C-6.57847656 8.51789063 -6.15695312 8.03578125 -5.72265625 7.5390625 C-5.17480469 6.90742188 -4.62695312 6.27578125 -4.0625 5.625 C-3.51722656 4.99851562 -2.97195313 4.37203125 -2.41015625 3.7265625 C-0.93041376 2.04367666 -0.93041376 2.04367666 0 0 Z " fill="#BFC1C3" transform="translate(291,277)"/>
<path d="M0 0 C1.77155654 0.11429397 3.54226229 0.24183037 5.3125 0.375 C6.79169922 0.47941406 6.79169922 0.47941406 8.30078125 0.5859375 C11 1 11 1 14 3 C16.32108669 3.70812814 18.65377147 4.38024152 21 5 C17.72606396 6.09868574 15.9556512 5.9040331 12.75 4.6875 C8.53815439 3.16480955 4.35764827 2.02998959 0 1 C0 0.67 0 0.34 0 0 Z " fill="#485565" transform="translate(167,43)"/>
<path d="M0 0 C0.33 0.66 0.66 1.32 1 2 C0.29296875 3.69921875 0.29296875 3.69921875 -0.8125 5.6875 C-2.78090086 9.41315838 -3.97972401 12.91889605 -5 17 C-6.45606519 12.47907032 -5.27032841 9.48351204 -4 5 C-3.34 5 -2.68 5 -2 5 C-1.34 3.35 -0.68 1.7 0 0 Z " fill="#7D8691" transform="translate(104,116)"/>
<path d="M0 0 C0.33 0 0.66 0 1 0 C1.29341888 5.67276511 1.00559652 8.99067246 -2 14 C-2.33 14 -2.66 14 -3 14 C-3 12.02 -3 10.04 -3 8 C-2.34 8 -1.68 8 -1 8 C-0.67 5.36 -0.34 2.72 0 0 Z " fill="#505A6E" transform="translate(248,163)"/>
<path d="M0 0 C0.66 0.33 1.32 0.66 2 1 C2.05429959 2.74965358 2.09292823 4.49979787 2.125 6.25 C2.14820313 7.22453125 2.17140625 8.1990625 2.1953125 9.203125 C1.99862781 12.0196498 1.44568916 13.60949036 0 16 C-0.99 16 -1.98 16 -3 16 C-3 15.34 -3 14.68 -3 14 C-2.34 13.67 -1.68 13.34 -1 13 C0.00496852 9.98509443 0.10335303 7.95818308 0.0625 4.8125 C0.05347656 3.91144531 0.04445312 3.01039063 0.03515625 2.08203125 C0.02355469 1.39496094 0.01195312 0.70789063 0 0 Z " fill="#575E71" transform="translate(158,159)"/>
<path d="M0 0 C5.94 0.99 5.94 0.99 12 2 C12 2.66 12 3.32 12 4 C12.66 4.33 13.32 4.66 14 5 C8.94744036 4.36843005 4.70406799 2.86540627 0 1 C0 0.67 0 0.34 0 0 Z " fill="#7D808F" transform="translate(117,215)"/>
<path d="M0 0 C0.33 0 0.66 0 1 0 C1 1.65 1 3.3 1 5 C1.66 5 2.32 5 3 5 C3.33 8.63 3.66 12.26 4 16 C1.8480563 12.77208445 1.79913557 11.71599191 2 8 C1.34 8 0.68 8 0 8 C0 5.36 0 2.72 0 0 Z " fill="#898F9C" transform="translate(134,112)"/>
<path d="M0 0 C-4.92984325 2.03993514 -8.57960425 3.40652968 -14 3 C-13.01 2.67 -12.02 2.34 -11 2 C-11 1.34 -11 0.68 -11 0 C-6.97959015 -0.69584017 -3.91736581 -1.1700097 0 0 Z " fill="#505567" transform="translate(179,229)"/>
<path d="M0 0 C0.66 0.33 1.32 0.66 2 1 C-3 7.57142857 -3 7.57142857 -8 9 C-7.04270084 7.87411986 -6.08412105 6.7493285 -5.125 5.625 C-4.59132813 4.99851562 -4.05765625 4.37203125 -3.5078125 3.7265625 C-2.38567993 2.44163349 -1.20628025 1.20628025 0 0 Z " fill="#3F4857" transform="translate(109,92)"/>
<path d="M0 0 C-1.95513161 0.696553 -3.91422476 1.38199565 -5.875 2.0625 C-6.96554688 2.44535156 -8.05609375 2.82820313 -9.1796875 3.22265625 C-12 4 -12 4 -14 3 C-13.01 2.67 -12.02 2.34 -11 2 C-11 1.34 -11 0.68 -11 0 C-6.97959015 -0.69584017 -3.91736581 -1.1700097 0 0 Z " fill="#475562" transform="translate(129,44)"/>
<path d="M0 0 C0.33 0 0.66 0 1 0 C1.125 2.375 1.125 2.375 1 5 C0.34 5.66 -0.32 6.32 -1 7 C-1.99 6.67 -2.98 6.34 -4 6 C-2.69593116 3.98079663 -1.36176581 1.98075027 0 0 Z " fill="#AEB2B7" transform="translate(291,277)"/>
</svg>
